<?xml version="1.0" standalone="no"?>
<!DOCTYPE svg PUBLIC "-//W3C//DTD SVG 20010904//EN"
 "http://www.w3.org/TR/2001/REC-SVG-20010904/DTD/svg10.dtd">
<svg version="1.0" xmlns="http://www.w3.org/2000/svg"
 width="578.000000pt" height="514.000000pt" viewBox="0 0 578.000000 514.000000"
 preserveAspectRatio="xMidYMid meet">

<g transform="translate(0.000000,514.000000) scale(0.100000,-0.100000)"
fill="#000000" stroke="none">
<path d="M346 4983 c-145 -26 -230 -106 -262 -244 -11 -46 -11 -65 0 -105 26
-100 61 -139 261 -294 252 -195 527 -440 775 -689 412 -413 829 -962 1055
-1386 26 -49 50 -94 52 -98 3 -5 14 6 25 25 11 18 31 45 45 60 50 53 66 213
34 337 -12 45 -26 116 -32 159 -16 114 -26 128 -139 200 -127 81 -240 209
-240 272 0 30 46 105 161 261 44 59 90 131 103 161 30 67 51 85 100 86 76 3
90 -46 26 -90 -54 -37 -54 -79 0 -46 10 7 22 9 25 6 16 -16 -11 -48 -69 -82
-36 -21 -71 -45 -80 -55 -26 -28 -116 -229 -110 -244 3 -8 27 -24 54 -37 27
-13 59 -34 71 -47 18 -18 33 -23 76 -23 40 0 53 4 53 15 0 8 -9 19 -19 24 -20
11 -51 88 -51 125 0 33 44 118 76 148 22 20 44 28 89 33 53 6 63 4 88 -15 69
-54 115 -230 82 -312 -6 -16 -1 -18 38 -18 29 0 59 8 82 21 36 22 80 22 214 3
66 -10 186 15 276 56 44 21 109 45 145 55 36 9 95 33 133 51 64 33 67 36 67
71 0 32 8 45 55 90 58 57 75 64 75 34 0 -12 11 -23 30 -30 17 -5 30 -14 29
-18 -1 -4 1 -16 5 -25 13 -30 2 -51 -31 -60 -23 -6 -42 -22 -64 -57 -18 -27
-45 -56 -60 -65 -16 -9 -34 -22 -41 -29 -7 -8 -60 -37 -118 -66 -58 -29 -112
-58 -120 -65 -8 -7 -51 -27 -95 -45 -44 -18 -88 -37 -98 -43 -11 -5 -51 -12
-90 -15 -89 -8 -135 -26 -141 -56 -12 -54 -30 -241 -33 -342 -3 -86 0 -121 13
-165 26 -79 24 -268 -2 -308 -33 -49 -41 -68 -48 -118 -20 -139 -81 -376 -115
-443 -11 -20 -27 -44 -36 -51 -25 -21 -85 -157 -85 -192 0 -36 50 -125 95
-170 135 -135 360 -167 520 -74 53 31 130 119 273 311 580 774 920 1608 1022
2503 40 352 36 780 -8 883 -26 60 -75 114 -140 156 -107 69 -41 65 -1177 74
-1781 15 -2749 15 -2819 2z m2674 -134 c173 -39 231 -268 97 -386 -47 -41 -96
-56 -172 -51 -78 5 -132 38 -172 105 -62 106 -22 256 82 311 59 30 101 36 165
21z m-2384 -7 c6 -4 28 -55 50 -115 21 -59 43 -106 48 -104 5 2 26 49 46 105
20 56 41 107 46 112 6 6 43 10 85 8 l74 -3 0 -215 0 -215 -53 -3 c-70 -4 -82
7 -82 74 0 30 -4 54 -8 54 -5 0 -17 -28 -28 -62 l-20 -63 -55 -3 c-64 -3 -71
2 -91 72 -21 72 -36 70 -40 -6 l-3 -63 -65 0 -65 0 -3 205 c-1 112 0 210 2
217 6 14 142 19 162 5z m702 -4 c17 -21 153 -402 147 -415 -3 -9 -27 -13 -70
-13 l-65 0 -15 35 -14 36 -62 -3 c-58 -3 -64 -5 -79 -33 -15 -28 -21 -30 -83
-33 -59 -3 -67 -1 -67 15 0 16 133 394 146 415 9 13 150 9 162 -4z m350 -33
c17 -25 36 -45 41 -45 6 0 22 20 37 45 l26 45 68 0 c38 0 72 -5 75 -10 4 -6
-21 -54 -54 -106 -34 -52 -61 -100 -61 -106 0 -6 28 -49 62 -97 33 -47 61 -92
62 -101 1 -12 -14 -16 -71 -18 l-73 -3 -32 46 c-18 26 -39 44 -48 43 -8 -2
-25 -22 -38 -46 l-23 -42 -69 0 c-38 0 -72 5 -75 10 -4 6 21 54 54 108 34 53
61 101 61 108 0 6 -27 49 -60 97 -33 47 -60 93 -60 101 0 13 13 16 73 16 l73
0 32 -45z m437 -175 l0 -215 -65 0 -65 0 -3 205 c-1 112 0 210 3 218 3 9 22
12 67 10 l63 -3 0 -215z m282 208 c5 -7 25 -66 44 -130 19 -65 38 -116 44
-115 5 2 24 55 43 118 19 63 39 120 44 127 6 7 35 12 74 12 60 0 64 -1 63 -22
0 -13 -30 -111 -67 -218 l-67 -195 -86 -3 c-61 -2 -89 1 -96 10 -16 20 -143
410 -137 419 8 14 130 11 141 -3z m961 -1 c7 -8 13 -73 14 -163 l3 -149 60 -5
60 -5 0 -50 0 -50 -130 0 -130 0 -3 205 c-1 112 0 210 2 217 7 18 110 17 124
0z m467 -42 l0 -50 -70 -5 c-63 -4 -70 -7 -73 -27 -3 -20 1 -22 60 -25 l63 -3
0 -50 0 -50 -60 -5 c-56 -5 -60 -7 -60 -30 0 -24 3 -25 70 -30 l70 -5 0 -50 0
-50 -134 -3 c-90 -2 -138 1 -147 9 -19 16 -21 398 -2 417 9 9 51 12 148 10
l135 -3 0 -50z m206 -10 c17 -36 35 -65 39 -65 4 0 22 29 39 65 l30 65 70 0
c57 0 71 -3 71 -15 0 -8 -30 -75 -67 -148 -59 -116 -68 -141 -73 -202 l-5 -70
-65 0 -65 0 -5 70 c-5 63 -12 83 -78 207 -40 76 -70 142 -67 148 3 5 38 10 76
10 l70 0 30 -65z m-643 -715 c158 -72 178 -293 33 -378 -96 -56 -222 -24 -288
73 -29 41 -33 55 -33 112 0 44 6 76 20 103 48 94 169 135 268 90z"/>
<path d="M2932 4715 c-34 -15 -42 -31 -42 -90 0 -35 5 -48 26 -64 33 -26 75
-27 105 -2 19 16 24 29 24 69 0 78 -47 114 -113 87z"/>
<path d="M1239 4633 c-12 -33 -5 -53 20 -53 26 0 30 9 19 48 -10 39 -25 41
-39 5z"/>
<path d="M4757 4170 c-3 -8 -11 -76 -16 -150 -27 -335 -99 -713 -197 -1030
-56 -181 -148 -435 -189 -525 -8 -16 -31 -68 -51 -115 -174 -403 -501 -937
-775 -1266 -19 -22 -50 -60 -69 -84 -77 -96 -106 -130 -205 -235 -130 -140
-180 -168 -305 -174 -148 -6 -275 39 -368 131 -62 61 -80 96 -131 262 -22 71
-44 133 -50 139 -21 21 -274 -123 -368 -208 -59 -52 -148 -204 -138 -235 19
-61 -41 -84 -75 -28 -34 57 -78 317 -60 363 9 23 12 24 79 18 93 -8 140 15
224 109 119 134 141 154 200 178 31 13 57 27 57 31 0 4 -9 29 -21 56 -11 26
-25 59 -31 73 l-10 25 -31 -37 c-18 -20 -56 -46 -86 -59 -48 -20 -59 -21 -110
-11 -31 6 -114 14 -186 18 l-130 6 -69 -54 c-38 -29 -74 -62 -80 -73 -6 -11
-21 -35 -34 -52 -71 -100 -94 47 -36 226 13 40 24 80 24 88 0 22 32 73 46 73
6 0 38 -16 70 -35 32 -19 69 -35 82 -35 14 0 59 16 102 35 81 37 144 45 196
25 45 -17 60 -5 89 75 l27 75 -70 133 c-192 365 -480 789 -764 1125 -190 224
-313 362 -324 362 -14 0 -15 -3 -61 -130 -87 -244 -126 -431 -142 -685 -9
-138 -2 -373 14 -480 62 -410 220 -788 464 -1110 87 -114 281 -314 391 -402
570 -456 1290 -625 2010 -471 448 95 868 331 1198 672 755 780 887 1960 324
2895 -108 181 -403 528 -415 491z m238 -1825 c0 -48 3 -60 17 -63 16 -3 21 11
31 88 2 10 14 15 42 15 l40 0 3 -57 c3 -49 6 -58 22 -58 19 0 26 19 32 95 3
28 6 30 41 29 21 -1 42 -5 47 -10 11 -12 -2 -220 -16 -234 -7 -7 -64 -6 -184
3 l-175 12 3 110 c1 61 4 116 7 123 3 9 19 12 47 10 l43 -3 0 -60z m-31 -246
c5 -5 4 -33 -4 -69 -19 -90 17 -116 40 -30 9 34 15 40 38 40 16 0 36 -6 46
-13 15 -11 16 -19 7 -52 -5 -21 -8 -42 -5 -46 2 -4 29 -13 60 -19 30 -7 58
-18 60 -25 8 -19 -15 -95 -30 -101 -10 -4 -185 34 -308 67 -46 12 -47 24 -18
142 31 123 33 128 72 120 18 -3 37 -9 42 -14z m-44 -519 c85 -13 161 -28 168
-35 11 -10 10 -19 -7 -52 -20 -41 -37 -53 -71 -53 -12 0 -29 -17 -45 -44 -25
-43 -25 -46 -10 -75 14 -29 14 -34 -5 -71 -13 -25 -27 -40 -39 -40 -21 0 -244
250 -249 279 -7 41 55 126 86 117 9 -2 87 -14 172 -26z m-303 -242 c21 -27 21
-47 2 -71 -10 -14 -19 -30 -19 -35 0 -6 40 -45 89 -87 49 -41 91 -84 94 -94 6
-23 -38 -81 -61 -81 -9 0 -57 34 -105 75 -92 78 -119 89 -137 55 -20 -36 -90
-13 -90 30 0 9 39 62 86 118 86 102 116 122 141 90z m-152 -378 c55 -71 101
-137 103 -148 3 -22 -56 -72 -85 -72 -11 0 -47 10 -82 21 -82 28 -98 16 -53
-40 42 -53 41 -72 -8 -106 -48 -33 -32 -46 -164 124 -53 69 -95 131 -94 139 2
8 20 29 41 45 l37 31 68 -22 c111 -36 124 -28 72 38 -16 21 -30 45 -30 53 0
18 58 67 80 67 8 0 60 -59 115 -130z m-403 -287 c71 -70 128 -135 128 -144 0
-15 -58 -49 -86 -49 -8 0 -25 6 -37 14 -20 13 -27 12 -67 -7 -35 -17 -46 -28
-50 -52 -7 -39 -84 -86 -105 -64 -18 20 -46 359 -31 378 13 16 84 50 106 51 8
0 72 -57 142 -127z m-411 -41 c16 -18 26 -38 23 -46 -8 -22 -97 -40 -124 -26
-12 6 -25 9 -28 5 -13 -13 28 -32 79 -38 65 -8 96 -28 116 -75 31 -74 -15
-140 -111 -162 -82 -18 -171 21 -164 73 2 18 13 24 51 31 35 7 54 6 68 -2 24
-16 45 -6 29 13 -6 7 -34 16 -63 20 -67 9 -103 28 -122 65 -48 93 38 186 164
177 46 -3 59 -9 82 -35z"/>
<path d="M4842 1453 c5 -26 38 -29 38 -4 0 15 -6 21 -21 21 -14 0 -19 -5 -17
-17z"/>
<path d="M3933 604 c-8 -21 13 -42 28 -27 13 13 5 43 -11 43 -6 0 -13 -7 -17
-16z"/>
</g>
</svg>
